<?xml version="1.0"?>
<svg xmlns="http://www.w3.org/2000/svg" viewBox="0 0 64 64" width="512" height="512"><g id="Outline"><g><path d="M51.554,21.432a1,1,0,0,0-1.563,1.247A22.754,22.754,0,0,1,55,37a23.006,23.006,0,1,1-7.638-17.114A1,1,0,1,0,48.7,18.4,24.938,24.938,0,0,0,35,12.2v-.693C37.418,10.7,39,8.959,39,7c0-2.8-3.075-5-7-5s-7,2.2-7,5c0,1.959,1.582,3.7,4,4.509v.677A25,25,0,1,0,57,37,24.73,24.73,0,0,0,51.554,21.432ZM27,7c0-1.626,2.29-3,5-3s5,1.374,5,3c0,.931-.809,1.828-2.062,2.394a2.887,2.887,0,0,0-.812-1.5A2.945,2.945,0,0,0,32,7a3,3,0,0,0-2.938,2.394C27.81,8.828,27,7.931,27,7Zm4,3a1,1,0,0,1,1-1,.974.974,0,0,1,.712.306A.957.957,0,0,1,33,10v2.046c-.334-.013-.665-.046-1-.046s-.668.012-1,.025Z"/><path d="M32,58a20.989,20.989,0,0,0,7.432-40.622,1,1,0,0,0-.709,1.87A18.545,18.545,0,0,1,40.6,20.1l-.97,1.681a1,1,0,1,0,1.732,1l.971-1.682A19.127,19.127,0,0,1,47.9,26.668l-1.673.966a1,1,0,1,0,1,1.732l1.68-.97A18.885,18.885,0,0,1,50.961,36H49a1,1,0,0,0,0,2h1.949a18.846,18.846,0,0,1-2.034,7.611l-1.693-.977a1,1,0,0,0-1,1.732l1.694.978a19.139,19.139,0,0,1-5.572,5.572l-.978-1.694a1,1,0,1,0-1.732,1l.977,1.693A18.846,18.846,0,0,1,33,55.949V54a1,1,0,0,0-2,0v1.957a19.024,19.024,0,0,1-7.61-2.044l.976-1.691a1,1,0,0,0-1.732-1l-.979,1.7a18.618,18.618,0,0,1-1.676-1.208,1,1,0,1,0-1.267,1.548A21.036,21.036,0,0,0,32,58Z"/><path d="M21.656,21.084l.978,1.694a1,1,0,1,0,1.732-1l-.977-1.693A18.846,18.846,0,0,1,31,18.051V20a1,1,0,0,0,2,0V18.046a20.516,20.516,0,0,1,2.053.223,1,1,0,0,0,.32-1.975,20.983,20.983,0,0,0-19.63,33.994,1,1,0,1,0,1.548-1.267,18.618,18.618,0,0,1-1.208-1.676l1.7-.979a1,1,0,1,0-1-1.732l-1.691.976A19.024,19.024,0,0,1,13.043,38H15a1,1,0,0,0,0-2H13.051a18.846,18.846,0,0,1,2.034-7.611l1.693.977a1,1,0,1,0,1-1.732l-1.694-.978A19.139,19.139,0,0,1,21.656,21.084Z"/><path d="M41.364,27.808a1,1,0,0,0-1.414-1.414l-4.243,4.242a4.976,4.976,0,0,0-1.4,4.225L32.171,37l-2.138-2.138a4.72,4.72,0,0,0-1.4-4.226l-1.414-1.414a5,5,0,0,0-7.071,7.071l1.414,1.414A4.983,4.983,0,0,0,25.1,39.169a5.162,5.162,0,0,0,.69-.065l2.139,2.138-3.535,3.536a3,3,0,1,0,4.242,4.242L35,42.657l3.536,3.536a1,1,0,0,1,0,1.413,1,1,0,0,1-1.415,0l-1.414-1.414a1,1,0,0,0-1.414,1.414l1.414,1.414a3,3,0,1,0,4.243-4.242l-3.536-3.535,2.14-2.14a4.747,4.747,0,0,0,4.224-1.4l1.414-1.414,2.828-2.829a1,1,0,0,0-1.414-1.414l-2.121,2.122-1.414-1.415,2.121-2.121a1,1,0,0,0-1.414-1.414l-2.121,2.121-1.414-1.414ZM22.979,36.293l-1.414-1.414a3,3,0,0,1,4.243-4.243l1.414,1.414a2.98,2.98,0,0,1,.879,2.122,3.016,3.016,0,0,1-.073.639.276.276,0,0,0-.008.027,2.992,2.992,0,0,1-5.041,1.455Zm4.878,2.05a5,5,0,0,0,1.415-1.415l1.485,1.486-1.414,1.414Zm-.636,9.263a1.021,1.021,0,0,1-1.413,0,1,1,0,0,1,0-1.414L30.05,41.95h0l5.02-5.021a5,5,0,0,0,1.415,1.415ZM41.364,36.293a3,3,0,0,1-4.243-4.243l.708-.707,2.12,2.121h0l2.121,2.121Z"/></g></g></svg>
