<?xml version="1.0" standalone="no"?>
<!DOCTYPE svg PUBLIC "-//W3C//DTD SVG 20010904//EN"
 "http://www.w3.org/TR/2001/REC-SVG-20010904/DTD/svg10.dtd">
<svg version="1.0" xmlns="http://www.w3.org/2000/svg"
 width="225.000000pt" height="225.000000pt" viewBox="0 0 225.000000 225.000000"
 preserveAspectRatio="xMidYMid meet">
<metadata>
Created by potrace 1.16, written by Peter Selinger 2001-2019
</metadata>
<g transform="translate(0.000000,225.000000) scale(0.100000,-0.100000)"
fill="#000000" stroke="none">
<path d="M375 1920 l-90 -90 415 -415 415 -415 415 415 415 415 -93 92 -92 93
-323 -323 -322 -322 -320 320 c-176 176 -322 320 -325 320 -3 0 -46 -41 -95
-90z"/>
<path d="M372 1157 l-92 -92 415 -415 415 -415 415 415 415 415 -92 92 -93 93
-322 -322 -323 -323 -323 323 -322 322 -93 -93z"/>
</g>
</svg>
