{
  "accessors": [
    {
      "bufferView": 2,
      "componentType": 5126,
      "count": 57180,
      "max": [
        6.4527168273925781,
        7.5561871528625488,
        17.674324035644531
      ],
      "min": [
        -5.7222099304199219,
        -5.1246471405029297,
        -0
      ],
      "type": "VEC3"
    },
    {
      "bufferView": 2,
      "byteOffset": 686160,
      "componentType": 5126,
      "count": 57180,
      "max": [
        0.9999927282333374,
        0.9999997615814209,
        0.95342743396759033
      ],
      "min": [
        -0.99999666213989258,
        -0.99999773502349854,
        -0.95182198286056519
      ],
      "type": "VEC3"
    },
    {
      "bufferView": 3,
      "componentType": 5126,
      "count": 57180,
      "max": [
        0.99999761581420898,
        0.99998068809509277,
        0.99656832218170166,
        1
      ],
      "min": [
        -0.99998319149017334,
        -0.99999266862869263,
        -0.99921178817749023,
        1
      ],
      "type": "VEC4"
    },
    {
      "bufferView": 1,
      "componentType": 5126,
      "count": 57180,
      "max": [
        9.750300407409668,
        9.750300407409668
      ],
      "min": [
        -8.750300407409668,
        -8.750300407409668
      ],
      "type": "VEC2"
    },
    {
      "bufferView": 0,
      "componentType": 5125,
      "count": 218760,
      "max": [
        57179
      ],
      "min": [
        0
      ],
      "type": "SCALAR"
    },
    {
      "bufferView": 2,
      "byteOffset": 1372320,
      "componentType": 5126,
      "count": 7704,
      "max": [
        7.795079231262207,
        8.612767219543457,
        19.267927169799805
      ],
      "min": [
        -6.9031848907470703,
        -6.3613548278808594,
        3.8322689533233643
      ],
      "type": "VEC3"
    },
    {
      "bufferView": 2,
      "byteOffset": 1464768,
      "componentType": 5126,
      "count": 7704,
      "max": [
        0.99957996606826782,
        0.99938654899597168,
        0.99656373262405396
      ],
      "min": [
        -0.99957996606826782,
        -0.99938654899597168,
        -0.99656373262405396
      ],
      "type": "VEC3"
    },
    {
      "bufferView": 3,
      "byteOffset": 914880,
      "componentType": 5126,
      "count": 7704,
      "max": [
        0.99838739633560181,
        0.99588799476623535,
        0.99500656127929688,
        1
      ],
      "min": [
        -0.99463731050491333,
        -0.83883225917816162,
        -0.99024742841720581,
        -1
      ],
      "type": "VEC4"
    },
    {
      "bufferView": 1,
      "byteOffset": 457440,
      "componentType": 5126,
      "count": 7704,
      "max": [
        0.9868999719619751,
        0.9814000129699707
      ],
      "min": [
        0.0081000002101063728,
        0.018500000238418579
      ],
      "type": "VEC2"
    },
    {
      "bufferView": 0,
      "byteOffset": 875040,
      "componentType": 5125,
      "count": 11556,
      "max": [
        7703
      ],
      "min": [
        0
      ],
      "type": "SCALAR"
    }
  ],
  "asset": {
    "extras": {
      "author": "FelixBDesign (https://sketchfab.com/felix95b)",
      "license": "CC-BY-4.0 (http://creativecommons.org/licenses/by/4.0/)",
      "source": "https://sketchfab.com/models/8e8fd14f7f1546b9bcf2f5cfee5c116c",
      "title": "Hazelnut Bush"
    },
    "generator": "Sketchfab-3.19.4",
    "version": "2.0"
  },
  "bufferViews": [
    {
      "buffer": 0,
      "byteLength": 921264,
      "byteOffset": 0,
      "name": "floatBufferViews",
      "target": 34963
    },
    {
      "buffer": 0,
      "byteLength": 519072,
      "byteOffset": 921264,
      "byteStride": 8,
      "name": "floatBufferViews",
      "target": 34962
    },
    {
      "buffer": 0,
      "byteLength": 1557216,
      "byteOffset": 1440336,
      "byteStride": 12,
      "name": "floatBufferViews",
      "target": 34962
    },
    {
      "buffer": 0,
      "byteLength": 1038144,
      "byteOffset": 2997552,
      "byteStride": 16,
      "name": "floatBufferViews",
      "target": 34962
    }
  ],
  "buffers": [
    {
      "byteLength": 4035696,
      "uri": "scene.bin"
    }
  ],
  "images": [
    {
      "uri": "textures/None_Hazelnut.png_baseColor.png"
    },
    {
      "uri": "textures/None_baseColor.png"
    }
  ],
  "materials": [
    {
      "doubleSided": true,
      "emissiveFactor": [
        0,
        0,
        0
      ],
      "name": "None",
      "pbrMetallicRoughness": {
        "baseColorFactor": [
          1,
          1,
          1,
          1
        ],
        "baseColorTexture": {
          "index": 1,
          "texCoord": 0
        },
        "metallicFactor": 0,
        "roughnessFactor": 1
      }
    },
    {
      "alphaMode": "BLEND",
      "doubleSided": true,
      "emissiveFactor": [
        0,
        0,
        0
      ],
      "name": "None_Hazelnut.png",
      "pbrMetallicRoughness": {
        "baseColorFactor": [
          1,
          1,
          1,
          1
        ],
        "baseColorTexture": {
          "index": 0,
          "texCoord": 0
        },
        "metallicFactor": 0,
        "roughnessFactor": 1
      }
    }
  ],
  "meshes": [
    {
      "primitives": [
        {
          "attributes": {
            "NORMAL": 1,
            "POSITION": 0,
            "TANGENT": 2,
            "TEXCOORD_0": 3
          },
          "indices": 4,
          "material": 0,
          "mode": 4
        }
      ]
    },
    {
      "primitives": [
        {
          "attributes": {
            "NORMAL": 6,
            "POSITION": 5,
            "TANGENT": 7,
            "TEXCOORD_0": 8
          },
          "indices": 9,
          "material": 1,
          "mode": 4
        }
      ]
    }
  ],
  "nodes": [
    {
      "children": [
        1
      ],
      "name": "RootNode (gltf orientation matrix)",
      "rotation": [
        -0.70710678118654746,
        -0,
        -0,
        0.70710678118654757
      ]
    },
    {
      "children": [
        2
      ],
      "name": "RootNode (model correction matrix)"
    },
    {
      "children": [
        3,
        4
      ],
      "name": "Hazelnut.obj.cleaner.materialmerger.gles"
    },
    {
      "mesh": 0,
      "name": ""
    },
    {
      "mesh": 1,
      "name": ""
    }
  ],
  "samplers": [
    {
      "magFilter": 9729,
      "minFilter": 9987,
      "wrapS": 10497,
      "wrapT": 10497
    }
  ],
  "scene": 0,
  "scenes": [
    {
      "name": "OSG_Scene",
      "nodes": [
        0
      ]
    }
  ],
  "textures": [
    {
      "sampler": 0,
      "source": 0
    },
    {
      "sampler": 0,
      "source": 1
    }
  ]
}

